<svg width="20" height="18" viewBox="0 0 20 18" fill="none" xmlns="http://www.w3.org/2000/svg">
<path fill-rule="evenodd" clip-rule="evenodd" d="M8.79128 12.7167C9.15447 12.7167 9.4489 12.9945 9.4489 13.337V15.7661C13.0642 13.7742 15.2393 12.3651 16.5511 11.1348C17.3124 10.4208 17.7311 9.81197 17.9743 9.2314C18.2188 8.64763 18.3268 7.99539 18.3268 7.13377C18.3268 4.05039 15.677 1.55082 12.4082 1.55082H7.80484C4.53609 1.55082 1.88624 4.05039 1.88624 7.13377C1.88624 10.2171 4.53609 12.7167 7.80484 12.7167H8.79128ZM9.4489 17.5588C18.2138 12.8007 19.9709 10.8519 19.9709 7.13377C19.9709 3.1939 16.5849 0 12.4082 0H7.80484C3.6281 0 0.242188 3.1939 0.242188 7.13377C0.242188 11.0736 3.6281 14.2675 7.80484 14.2675V17.3799C7.80484 17.8544 8.34667 18.1531 8.78378 17.9181C9.00985 17.7966 9.23153 17.6768 9.4489 17.5588Z" fill="#707070"/>
</svg>
