<svg width="23" height="14" viewBox="0 0 23 14" fill="none" xmlns="http://www.w3.org/2000/svg">
<path d="M4.88062 0.157973C4.64116 -0.0526577 4.25293 -0.0526575 4.01347 0.157973L0.839237 2.95008C0.539916 3.21337 0.539916 3.64024 0.839237 3.90353C1.13856 4.16682 1.62385 4.16682 1.92317 3.90353L3.68058 2.35768V10.4384C3.68058 12.3001 5.39636 13.8094 7.51288 13.8094H12.4182C12.8415 13.8094 13.1847 13.5075 13.1847 13.1352C13.1847 12.7628 12.8415 12.461 12.4182 12.461H7.51288C6.24297 12.461 5.2135 11.5554 5.2135 10.4384V2.35768L6.97091 3.90353C7.27024 4.16682 7.75553 4.16682 8.05485 3.90353C8.35417 3.64024 8.35417 3.21337 8.05485 2.95008L4.88062 0.157973Z" />
<path d="M18.2696 13.842C18.5091 14.0527 18.8973 14.0527 19.1368 13.842L22.311 11.0499C22.6103 10.7866 22.6103 10.3598 22.311 10.0965C22.0117 9.83318 21.5264 9.83318 21.2271 10.0965L19.4697 11.6423V3.5616C19.4697 1.69988 17.7539 0.190649 15.6374 0.190649H10.732C10.3087 0.190649 9.96555 0.492495 9.96555 0.86484C9.96555 1.23719 10.3087 1.53903 10.732 1.53903H15.6374C16.9073 1.53903 17.9367 2.44457 17.9367 3.5616V11.6423L16.1793 10.0965C15.88 9.83318 15.3947 9.83318 15.0954 10.0965C14.7961 10.3598 14.7961 10.7866 15.0954 11.0499L18.2696 13.842Z" />
<path d="M4.88062 0.157973C4.64116 -0.0526577 4.25293 -0.0526575 4.01347 0.157973L0.839237 2.95008C0.539916 3.21337 0.539916 3.64024 0.839237 3.90353C1.13856 4.16682 1.62385 4.16682 1.92317 3.90353L3.68058 2.35768V10.4384C3.68058 12.3001 5.39636 13.8094 7.51288 13.8094H12.4182C12.8415 13.8094 13.1847 13.5075 13.1847 13.1352C13.1847 12.7628 12.8415 12.461 12.4182 12.461H7.51288C6.24297 12.461 5.2135 11.5554 5.2135 10.4384V2.35768L6.97091 3.90353C7.27024 4.16682 7.75553 4.16682 8.05485 3.90353C8.35417 3.64024 8.35417 3.21337 8.05485 2.95008L4.88062 0.157973Z" stroke="black"/>
<path d="M18.2696 13.842C18.5091 14.0527 18.8973 14.0527 19.1368 13.842L22.311 11.0499C22.6103 10.7866 22.6103 10.3598 22.311 10.0965C22.0117 9.83318 21.5264 9.83318 21.2271 10.0965L19.4697 11.6423V3.5616C19.4697 1.69988 17.7539 0.190649 15.6374 0.190649H10.732C10.3087 0.190649 9.96555 0.492495 9.96555 0.86484C9.96555 1.23719 10.3087 1.53903 10.732 1.53903H15.6374C16.9073 1.53903 17.9367 2.44457 17.9367 3.5616V11.6423L16.1793 10.0965C15.88 9.83318 15.3947 9.83318 15.0954 10.0965C14.7961 10.3598 14.7961 10.7866 15.0954 11.0499L18.2696 13.842Z" stroke="black"/>
</svg>
