<svg id="Layer_1" data-name="Layer 1" xmlns="http://www.w3.org/2000/svg" viewBox="0 0 34.42 23.71"><path d="M13.51,35.48V16.09L9.89,19.72c-.27.27-.49.66-.81.76a4.16,4.16,0,0,1-1.32,0c0-.41,0-.95.19-1.2,1-1.12,2.08-2.15,3.14-3.21.79-.79,1.6-1.57,2.37-2.38a1.07,1.07,0,0,1,1.79,0c1.78,1.81,3.57,3.6,5.36,5.4.43.44.87,1,.25,1.45a1.51,1.51,0,0,1-1.43-.27c-1.34-1.23-2.58-2.58-4.11-4.14V35.48Z" transform="translate(-7.76 -13.19)"/><path d="M34.69,34.18V15.37h1.72V34.13c.54-.49.86-.77,1.16-1.07,1.09-1.08,2.14-2.21,3.29-3.23.25-.23.85-.07,1.29-.08,0,.4.12,1-.09,1.18-1.89,2-3.81,4-5.81,5.82a1.48,1.48,0,0,1-1.45-.09c-1.91-1.79-3.75-3.66-5.54-5.56-.26-.28-.13-.92-.18-1.39.47.06,1.1,0,1.38.22C31.83,31.2,33.11,32.57,34.69,34.18Z" transform="translate(-7.76 -13.19)"/></svg>