<svg id="Layer_1" data-name="Layer 1" xmlns="http://www.w3.org/2000/svg" viewBox="0 0 26.54 26.54"><path d="M25.09,38.07c-3.19,0-6.37,0-9.56,0a3.28,3.28,0,0,1-3.64-3.62q0-9.61,0-19.23a3.41,3.41,0,0,1,3.68-3.66q9.55,0,19.1,0a3.5,3.5,0,0,1,3.73,3.76q0,9.56,0,19.11a3.35,3.35,0,0,1-3.66,3.64Zm0-25.39H15.68c-1.81,0-2.73.87-2.73,2.65q0,9.5,0,19A2.36,2.36,0,0,0,15.64,37h19c1.79,0,2.66-.91,2.66-2.72q0-9.43,0-18.88c0-1.91-.83-2.74-2.74-2.74Z" transform="translate(-11.88 -11.53)"/><path d="M25.12,18.44h8.05c.83,0,1.61.11,1.63,1.15s-.76,1.17-1.6,1.16q-8.16,0-16.32,0c-.87,0-1.6-.23-1.59-1.21s.73-1.12,1.56-1.11C19.61,18.45,22.36,18.44,25.12,18.44Z" transform="translate(-11.88 -11.53)"/><path d="M25,26.5c-2.68,0-5.36,0-8,0-.86,0-1.63-.15-1.65-1.14s.74-1.18,1.6-1.17H33.22c.85,0,1.6.17,1.58,1.2s-.73,1.12-1.54,1.11C30.5,26.49,27.75,26.5,25,26.5Z" transform="translate(-11.88 -11.53)"/><path d="M25,30c2.72,0,5.44,0,8.16,0,.84,0,1.61.13,1.61,1.17s-.79,1.14-1.62,1.14H16.86c-.88,0-1.6-.25-1.57-1.23s.76-1.14,1.58-1.08c.19,0,.39,0,.58,0Z" transform="translate(-11.88 -11.53)"/></svg>