<svg id="Layer_1" data-name="Layer 1" xmlns="http://www.w3.org/2000/svg" viewBox="0 0 21.78 25.77"><path d="M27.57,30.34h-6.2c-.3,1.71-.58,3.38-.9,5.05-.38,2-.39,2-2.73,1.74L19,30.31H14.9C15,27.8,15,27.8,17.28,27.8s2.24,0,2.55-2.24c.21-1.45.5-2.89.73-4.33,0-.11,0-.23-.11-.49H16.39a10,10,0,0,1,.36-1.91,1.21,1.21,0,0,1,.9-.55c1.14-.07,2.28,0,3.52,0,.31-1.66.61-3.24.89-4.83.36-2.05.44-2.1,2.74-1.68l-1.15,6.42h6.16c.31-1.58.63-3.2,1-4.81.42-2,.55-2.07,2.71-1.61l-1.19,6.49h4.26c.07.2.13.28.12.35-.4,2.18-.41,2.18-2.63,2.18s-2.25,0-2.66,2.17c-.3,1.55-.53,3.12-.82,4.82h4.51l-.4,2.47H30.1l-1.33,6.93H26.4Zm-4.48-9.57-1.26,7h6.29l1.25-7Z" transform="translate(-14.9 -11.51)"/></svg>