<svg id="Layer_1" data-name="Layer 1" xmlns="http://www.w3.org/2000/svg" viewBox="0 0 30.04 26.92"><path d="M35.62,36.47c0-1.28,0-2.47,0-3.67,0-2.78.05-5.55.14-8.33,0-.43.4-1.18.66-1.21.88-.09.71.71.71,1.25,0,4.06,0,8.13,0,12.19,0,.92-.29,1.38-1.29,1.36-2.24,0-4.49,0-6.73,0-1,0-1.35-.38-1.34-1.32,0-2,0-4,0-6a10.33,10.33,0,0,0-.07-1.36,2.39,2.39,0,0,0-4.76.23c0,2.32-.05,4.65,0,7,0,1.09-.4,1.48-1.46,1.46q-3.24-.06-6.47,0c-1,0-1.44-.32-1.43-1.36.06-4.14.06-8.29.14-12.43,0-.36.46-.71.71-1.07.19.35.55.7.56,1.06,0,3.6,0,7.21,0,10.82v1.41h6.45c0-2.12-.13-4.23.05-6.32A6.25,6.25,0,0,1,22.61,27,3.32,3.32,0,0,1,26.75,26a3.71,3.71,0,0,1,2.39,3.35c.09,1.9,0,3.81,0,5.72v1.43Z" transform="translate(-10.44 -11.14)"/><path d="M25.34,12.64,12.46,22.07a3,3,0,0,1-.81.56,4.88,4.88,0,0,1-1.21,0c.13-.38.15-.9.42-1.11,1.4-1.1,2.86-2.12,4.29-3.17,3.11-2.27,6.23-4.53,9.31-6.84a1.37,1.37,0,0,1,1.95,0c4.35,3.23,8.74,6.41,13.1,9.62.48.36,1.41.65.74,1.46-.17.2-1.14,0-1.55-.32-4.2-3-8.36-6.08-12.54-9.13C25.93,13,25.68,12.87,25.34,12.64Z" transform="translate(-10.44 -11.14)"/></svg>