<?xml version="1.0" encoding="utf-8"?>
<!-- Generator: Adobe Illustrator 25.2.0, SVG Export Plug-In . SVG Version: 6.00 Build 0)  -->
<svg version="1.1" id="Layer_1" xmlns="http://www.w3.org/2000/svg" xmlns:xlink="http://www.w3.org/1999/xlink" x="0px" y="0px"
	 viewBox="0 0 500 500" style="enable-background:new 0 0 500 500;" xml:space="preserve">
<style type="text/css">
	.st0{display:none;fill:#FFFFFF;}
</style>
<g>
	<path class="st0" d="M243.6,442c-61.9,0-123.8,0-185.6,0c0-128,0-256,0-384c128,0,256,0,384,0c0,128,0,256,0,384
		c-62.1,0-124.3,0-186.4,0c0.7-0.2,1.4-0.5,2.1-0.7c20.4-3.4,34.8-14.6,43.4-33.3c1.6-3.5,2.6-7.2,3.9-10.9c1.5,0,2.8,0,4.2,0
		c31.9,0,63.9,0,95.8,0c5.5,0,9.9-1.7,12.2-6.9c2.2-5.1,0.4-9.3-3.1-13.3c-5-5.7-10.1-11.4-14.6-17.5c-19.5-26.8-30.9-56.8-33-90
		c-1-16.2-0.2-32.4-0.9-48.6c-0.4-9.7-1-19.6-3.4-28.8c-10.6-40.6-36.2-67.9-75.6-82.2c-2.3-0.9-3.4-1.7-3.2-4.4
		c0.2-4.7,0.2-9.5,0-14.2c-0.5-16.9-14.1-31.1-31-32.3c-17.2-1.3-32.9,10.6-35.5,27.5c-1,6.3-0.7,12.9-0.7,19.4
		c0,2.3-0.9,3.1-2.8,3.9c-7.3,3.1-15,5.8-21.7,9.8c-33.4,20.1-53.1,49.6-57,88.6c-1.5,15.1-0.3,30.4-1,45.6
		c-0.6,12.2-1.2,24.5-3.5,36.4c-6.2,33.3-21.5,62.2-44.7,86.9c-0.2,0.2-0.3,0.4-0.5,0.5c-3.5,3.7-4.8,8-2.7,12.7
		c2.1,4.9,6.2,6.9,11.4,6.9c32.2,0,64.4,0,96.5,0c1.5,0,2.9,0,4.4,0c0.4,1.3,0.7,2.2,0.9,3.2c4.6,16.6,14.7,28.8,30.1,36.1
		C231.2,439.1,237.6,440.2,243.6,442z M81.2,215.4c0,1.7-0.1,3.5,0,5.2c0.4,5.3,4.6,9.5,9.8,10.2c5.1,0.7,10.2-2.5,11.8-7.7
		c0.5-1.6,0.7-3.4,0.7-5.1c0.4-23.2,5.7-45.1,16.4-65.7c6.8-13.1,15.6-24.9,25.9-35.5c4.8-5,4.8-12,0.2-16.4
		c-4.6-4.4-11.6-4.1-16.4,0.9C98.9,133.1,82.9,171.2,81.2,215.4z M418,215.3c-1-29.6-8.9-57.2-24.2-82.6
		c-7-11.6-15.3-22.1-24.8-31.7c-3.8-3.9-9.2-4.6-13.7-2.2c-4.4,2.4-6.8,7.5-5.3,12.4c0.8,2.5,2.5,4.9,4.3,6.8
		c18.2,19,31.1,41.2,36.8,66.9c2.5,11.3,3.2,23.1,4.3,34.8c0.6,6.4,5.1,11.2,11.2,11.3c6.3,0,11.1-4.9,11.3-11.5
		C418.1,218,418,216.7,418,215.3z"/>
	<path d="M243.6,442c-6-1.8-12.4-2.9-18.1-5.6c-15.5-7.3-25.5-19.5-30.1-36.1c-0.3-0.9-0.5-1.9-0.9-3.2c-1.5,0-2.9,0-4.4,0
		c-32.2,0-64.4,0-96.5,0c-5.3,0-9.3-2-11.4-6.9c-2.1-4.8-0.8-9,2.7-12.7c0.2-0.2,0.3-0.4,0.5-0.5c23.1-24.7,38.5-53.6,44.7-86.9
		c2.2-11.9,2.9-24.2,3.5-36.4c0.7-15.2-0.5-30.5,1-45.6c3.9-39,23.6-68.4,57-88.6c6.8-4.1,14.4-6.8,21.7-9.8c2-0.8,2.8-1.6,2.8-3.9
		c0-6.5-0.3-13,0.7-19.4c2.7-16.9,18.3-28.8,35.5-27.5c16.9,1.2,30.5,15.4,31,32.3c0.2,4.7,0.2,9.5,0,14.2c-0.1,2.6,0.9,3.5,3.2,4.4
		c39.4,14.3,65,41.6,75.6,82.2c2.4,9.3,3,19.2,3.4,28.8c0.7,16.2-0.1,32.4,0.9,48.6c2.1,33.2,13.5,63.1,33,90
		c4.5,6.1,9.5,11.8,14.6,17.5c3.5,4,5.4,8.2,3.1,13.3c-2.3,5.2-6.7,6.9-12.2,6.9c-31.9-0.1-63.9,0-95.8,0c-1.4,0-2.7,0-4.2,0
		c-1.3,3.7-2.3,7.5-3.9,10.9c-8.6,18.7-23,29.9-43.4,33.3c-0.7,0.1-1.4,0.4-2.1,0.7C251.6,442,247.6,442,243.6,442z M117.1,374.4
		c88.6,0,176.7,0,264.8,0c-0.1-0.5,0-0.7-0.1-0.9c-0.8-1.1-1.6-2.3-2.3-3.4c-21-30.1-33.3-63.5-35.5-100.2c-1-16-0.4-32.2-0.8-48.2
		c-0.2-6.3-0.5-12.7-1.6-19c-8-48.7-57.3-83.8-105.9-75.6c-47.2,7.9-79.6,46.3-79.6,94.2c0,11.8,0.1,23.7,0,35.5
		c-0.4,36.6-9.8,70.6-28.8,102C124.1,364,120.6,369,117.1,374.4z M218.2,397.2c4.3,13.7,18.3,22.9,33.2,22.3
		c13.4-0.6,26.9-10.8,29.4-22.3C260,397.2,239.3,397.2,218.2,397.2z M260.7,103.9c0.1-1,0.2-2.1,0.2-3.2c0-3.4,0.2-6.7-0.2-10.1
		c-0.7-5.4-5.5-9.4-10.9-9.5c-5.3-0.1-10.4,3.8-11.1,9.1c-0.5,4.5-0.1,9.1-0.1,13.5C246.1,103.9,253.2,103.9,260.7,103.9z"/>
	<path d="M81.2,215.4c1.7-44.2,17.7-82.3,48.6-114.1c4.8-4.9,11.8-5.2,16.4-0.9c4.6,4.4,4.6,11.4-0.2,16.4
		c-10.3,10.6-19.1,22.3-25.9,35.5c-10.7,20.6-16.1,42.5-16.4,65.7c0,1.7-0.2,3.5-0.7,5.1c-1.6,5.1-6.7,8.3-11.8,7.7
		c-5.2-0.7-9.4-5-9.8-10.2C81.1,218.9,81.2,217.1,81.2,215.4z"/>
	<path d="M418,215.3c0,1.4,0,2.7,0,4.1c-0.1,6.6-5,11.5-11.3,11.5c-6.1,0-10.6-4.9-11.2-11.3c-1.2-11.6-1.8-23.4-4.3-34.8
		c-5.7-25.8-18.6-47.9-36.8-66.9c-1.8-1.9-3.5-4.3-4.3-6.8c-1.5-5,0.9-10,5.3-12.4c4.5-2.5,9.9-1.7,13.7,2.2
		c9.5,9.6,17.9,20.1,24.8,31.7C409.2,158.1,417.1,185.7,418,215.3z"/>
	<path class="st0" d="M117.1,374.4c3.5-5.4,7-10.4,10.1-15.6c19-31.3,28.4-65.4,28.8-102c0.1-11.8,0-23.7,0-35.5
		c0-47.9,32.4-86.2,79.6-94.2c48.6-8.2,97.9,26.9,105.9,75.6c1,6.2,1.4,12.6,1.6,19c0.4,16.1-0.2,32.2,0.8,48.2
		c2.2,36.7,14.5,70,35.5,100.2c0.8,1.1,1.6,2.2,2.3,3.4c0.1,0.2,0.1,0.4,0.1,0.9C293.7,374.4,205.6,374.4,117.1,374.4z"/>
	<path class="st0" d="M218.2,397.2c21,0,41.8,0,62.6,0c-2.4,11.4-16,21.7-29.4,22.3C236.6,420.2,222.5,410.9,218.2,397.2z"/>
	<path class="st0" d="M260.7,103.9c-7.4,0-14.6,0-22.1,0c0-4.4-0.4-9,0.1-13.5c0.7-5.4,5.8-9.2,11.1-9.1c5.3,0.1,10.2,4,10.9,9.5
		c0.4,3.3,0.2,6.7,0.2,10.1C260.8,101.8,260.7,102.9,260.7,103.9z"/>
</g>
</svg>
